HIERARCHY
ROOT HipCenter
{
    OFFSET 0.0 0.0 -0.0
    CHANNELS 6 Xposition Yposition Zposition Zrotation Xrotation Yrotation
    JOINT Spine
    {
        OFFSET 0.0 0.12091275304555893 0.0
        CHANNELS 3 Zrotation Xrotation Yrotation
        JOINT ShoulderCenter
        {
            OFFSET 0.0 0.3346816301345825 0.0
            CHANNELS 3 Zrotation Xrotation Yrotation
            JOINT LeftShoulder
            {
                OFFSET 0.19071903824806213 0.0 0.0
                CHANNELS 3 Zrotation Xrotation Yrotation
                JOINT LeftElbow
                {
                    OFFSET 0.29756611585617065 0.0 0.0
                    CHANNELS 3 Zrotation Xrotation Yrotation
                    JOINT LeftWrist
                    {
                        OFFSET 0.2960432767868042 0.0 0.0
                        CHANNELS 3 Zrotation Xrotation Yrotation
                        JOINT LeftHand
                        {
                            OFFSET 0.04401778429746628 0.0 0.0
                            CHANNELS 3 Zrotation Xrotation Yrotation
                            End Site
                            {
                                OFFSET 0.01760711520910263 0.0 0.0
                            }
                        }
                    }
                }
            }
            JOINT RightShoulder
            {
                OFFSET -0.19071903824806213 0.0 0.0
                CHANNELS 3 Zrotation Xrotation Yrotation
                JOINT RightElbow
                {
                    OFFSET -0.29756611585617065 0.0 0.0
                    CHANNELS 3 Zrotation Xrotation Yrotation
                    JOINT RightWrist
                    {
                        OFFSET -0.2960432767868042 0.0 0.0
                        CHANNELS 3 Zrotation Xrotation Yrotation
                        JOINT RightHand
                        {
                            OFFSET -0.04401778429746628 0.0 0.0
                            CHANNELS 3 Zrotation Xrotation Yrotation
                            End Site
                            {
                                OFFSET -0.01760711520910263 0.0 0.0
                            }
                        }
                    }
                }
            }
            End Site
            {
                OFFSET 0.0 0.1338726431131363 0.0
            }
        }
    }
    JOINT LeftHip
    {
        OFFSET 0.13977819681167603 0.0 0.0
        CHANNELS 3 Zrotation Xrotation Yrotation
        JOINT LeftKnee
        {
            OFFSET 0.0 -0.4064934253692627 0.0
            CHANNELS 3 Zrotation Xrotation Yrotation
            JOINT LeftAnkle
            {
                OFFSET 0.0 -0.4477119445800781 0.0
                CHANNELS 3 Zrotation Xrotation Yrotation
                JOINT LeftFoot
                {
                    OFFSET 0.0 -0.10066655278205872 0.0
                    CHANNELS 3 Zrotation Xrotation Yrotation
                    End Site
                    {
                        OFFSET 0.0 0.0 0.040266621857881546
                    }
                }
            }
        }
    }
    JOINT RightHip
    {
        OFFSET -0.13977819681167603 0.0 0.0
        CHANNELS 3 Zrotation Xrotation Yrotation
        JOINT RightKnee
        {
            OFFSET 0.0 -0.4064934253692627 0.0
            CHANNELS 3 Zrotation Xrotation Yrotation
            JOINT RightAnkle
            {
                OFFSET 0.0 -0.4477119445800781 0.0
                CHANNELS 3 Zrotation Xrotation Yrotation
                JOINT RightFoot
                {
                    OFFSET 0.0 -0.10066655278205872 0.0
                    CHANNELS 3 Zrotation Xrotation Yrotation
                    End Site
                    {
                        OFFSET 0.0 0.0 0.040266621857881546
                    }
                }
            }
        }
    }
}
MOTION
Frames: 5
Frame Time: 0.03333333333333333
0.46799999475479126 0.039000000804662704 0.006000000052154064 2.838779738498911 -3.3068878292014436 -59.52113105813987 -5.241660749166065 -2.3926935480731943 -0.039797583086248374 1.8202712335084006e-07 7.388518879827442e-08 11.780732009718186 93.67345341470495 17.73173395378319 -178.43937412666963 -3.920577231765868e-06 3.4923346597652833e-06 19.57077580680534 -5.391447950338498e-08 -47.36182707942552 34.190336331184426 -1.5902773407317584e-15 -4.4139062980501586e-32 3.1805546814635168e-15 -96.05734802768815 20.76545886383171 -165.62646723575142 -2.244511042080727e-06 -1.6330942733927065e-06 -22.96803652449341 -179.9999998224035 -44.49437747285324 141.01754344771763 6.3611093629270335e-15 3.1805546814635168e-15 -1.7655625192200634e-31 6.858734411440318 4.47944137887467 -50.19013306358231 -0.46383886863038976 0.3502383037337047 -0.5076839827950635 82.49414865213356 -37.77573871200597 151.02911462660765 0.0 0.0 3.1805546814635164e-15 -9.835558255012003 12.566555891647802 49.50473474085353 -2.988654003684082 -4.6738858176298095 -5.305219170355341 -87.43225207599724 -51.13666497488943 -143.00991298280533 4.572047354603805e-15 -1.9878466759146985e-16 -5.963540027744094e-16
0.47699999809265137 0.023000000044703484 0.0010000000474974513 2.8387937503277003 -1.8910643192302765 -59.7444671270218 -3.5453034698040358 -3.005867079800937 -0.066170126419699 -4.36179484625186e-08 3.170969523111681e-08 11.565396174049251 94.23924092527955 7.221575895632409 178.70105361465062 -4.155294888056325e-06 8.815756117648671e-07 30.693800843147127 1.1138925332963139e-06 -35.13740698964982 22.992746924372636 7.95138670365879e-15 -3.1805546814635156e-15 3.1805546814635164e-15 -95.97990016110873 6.456169658211393 -164.13813893528118 3.2203047397564634e-06 -3.5850880492994803e-06 -30.207273338773202 179.99999332726847 -25.99483508338743 142.82612455822692 6.3611093629270335e-15 -3.3104297235376187e-31 -5.9635400277440935e-15 7.089180794743252 6.310454158034344 -50.16891802165456 3.026881324364103 -3.5503008680625188 5.097869714843799 87.93774449324947 -45.385354649894204 151.8018249333926 0.0 0.0 -3.1805546814635168e-15 -8.490734926782615 12.065454522626991 50.88595115280268 -2.679706182173634 -4.0004520554748435 -4.490556306769702 -94.81126280019838 -35.75009828693787 -156.26792900374653 -3.975693351829397e-16 -3.975693351829397e-15 -7.951386703658794e-16
0.4819999933242798 0.01899999938905239 -0.00800000037997961 1.4202614494703538 -0.9466602117318933 -57.793213410600096 -1.8849656046763152 -0.8955231312461065 -0.047924611908718995 -2.2604172690129296e-08 -4.203385780626803e-08 8.202470847701875 96.25515169605947 -8.510032662114327 178.6550998810501 1.2943249186735625e-06 1.727084360293657e-06 36.15616804021127 5.797274854206985e-07 -18.921790107145714 20.802021156531243 7.951386703658792e-16 4.4139062980501586e-32 6.3611093629270335e-15 -95.43007264796898 5.73201069859761 -169.50790049153477 -4.2136004256295276e-07 -1.3197094642184537e-06 -27.027621982142623 -179.99999547781084 -47.53655189696926 143.7841379501143 0.0 0.0 -1.5902773407317584e-15 9.336775580497951 5.131567410394841 -47.71224131645003 2.150821793129461 -2.1241547670119223 2.9831627311311215 81.34405241046743 -46.457066058616256 144.8830631666291 1.2722218725854067e-14 0.0 0.0 -6.555890742318452 13.571848513003268 53.56238307176451 -2.5449783431131614 -3.233897757470778 -3.610992498719025 -104.50665338889534 -28.610636678602347 -166.06627018929402 -1.7890620083232284e-15 2.782985346280577e-15 3.578124016646457e-15
0.48899999260902405 0.024000000208616257 -0.012000000104308128 1.420261411242152 -1.8928050001466563 -57.477935040713774 -2.858456599382007 -1.2817198924795896 -0.019885763364250693 -6.389858895712737e-08 -6.390635632381172e-08 8.485527277920717 97.53205962690186 -16.747898624832878 -179.09468357491053 1.978986577862006e-06 -2.9072550921551674e-06 29.36227430013569 2.7863321423609138e-06 16.53915938706113 17.688345109561105 6.3611093629270335e-15 -6.3611093629270335e-15 3.531125038440127e-31 -93.34670628827014 28.31385966581772 -173.18994584108728 7.950755477345174e-07 -7.640720997536382e-07 -22.355558910598873 -179.99999054090972 -63.56391232954545 137.41722000981554 -4.4139062980501586e-32 -3.1805546814635168e-15 -1.5902773407317584e-15 8.642855971240746 4.679744508402946 -49.826031181910444 1.6743849800468744 -1.7310403430537464 2.6109876230395805 85.52560371270283 -44.868473790962746 151.1064643657051 6.361109362927035e-15 6.361109362927035e-15 -3.531125038440127e-31 -6.835417617294189 11.777082077689082 48.89712169485313 -1.1222184553445642 -1.3313813501997378 -1.4109519898332576 -98.760024480462 -27.661360063890985 -162.25045221026352 -5.565970692561154e-15 3.1805546814635168e-15 1.5902773407317584e-15
0.492000013589859 0.023000000044703484 -0.017999999225139618 0.9469533691173361 -0.9468223163700283 -59.224209438646234 -1.7322328974935688 -2.0606349980747845 -0.07182999349004386 -4.3907404867495775e-08 3.745385528015172e-09 9.97067133814999 97.87441740632408 -18.09955669527982 -179.65480393368222 6.358837298026156e-06 2.194884339600061e-06 29.9302493652868 -1.7437104991917862e-05 76.97799822142113 18.214962583739116 -6.3611093629270335e-15 0.0 0.0 -92.15411435763558 26.07280020885949 -173.03246764266828 6.278559456523123e-07 2.950407473400099e-06 -25.379475716867564 179.99999679511927 -43.76011888025487 134.64206416717718 0.0 0.0 -1.2921003393445538e-15 10.026532122272297 4.568571161206302 -49.19455720458585 1.264008010711691 -1.294803758122992 1.8842608295251726 88.01688789543485 -44.01894401111306 152.79810024007526 0.0 0.0 0.0 -6.246895158267952 11.896426724460703 50.400044800372925 -1.6454931358858924 -2.3952248713372017 -2.643322005080608 -102.03084923711059 -31.614455245456178 -163.04828283422935 -1.5902773407317592e-15 -1.1034765745125397e-32 7.951386703658796e-16
